<svg width="512" height="512" viewBox="0 0 512 512" fill="none" xmlns="http://www.w3.org/2000/svg">
  <!-- Background circle -->
  <circle cx="256" cy="256" r="256" fill="#2563eb"/>
  
  <!-- Business icon -->
  <rect x="128" y="128" width="256" height="256" rx="32" fill="white"/>
  
  <!-- Building structure -->
  <rect x="160" y="192" width="192" height="160" fill="#2563eb"/>
  
  <!-- Windows -->
  <rect x="180" y="220" width="24" height="24" rx="4" fill="white"/>
  <rect x="220" y="220" width="24" height="24" rx="4" fill="white"/>
  <rect x="260" y="220" width="24" height="24" rx="4" fill="white"/>
  <rect x="300" y="220" width="24" height="24" rx="4" fill="white"/>
  
  <rect x="180" y="260" width="24" height="24" rx="4" fill="white"/>
  <rect x="220" y="260" width="24" height="24" rx="4" fill="white"/>
  <rect x="260" y="260" width="24" height="24" rx="4" fill="white"/>
  <rect x="300" y="260" width="24" height="24" rx="4" fill="white"/>
  
  <!-- Door -->
  <rect x="232" y="300" width="48" height="52" rx="8" fill="white"/>
  <circle cx="264" cy="326" r="4" fill="#2563eb"/>
  
  <!-- Company name text -->
  <text x="256" y="440" text-anchor="middle" font-family="Arial, sans-serif" font-size="24" font-weight="bold" fill="#2563eb">BM</text>
</svg>